<svg width="497" height="282" viewBox="0 0 497 282" fill="none" xmlns="http://www.w3.org/2000/svg">
<path d="M254.728 194.249C250.917 194.249 247.425 192.878 245.043 190.489C242.661 187.987 241.709 184.652 242.344 181.132L263.302 62.8099C264.731 55.375 272.51 49.3535 280.925 49.3535H482.728C486.697 49.3535 490.031 50.7241 492.413 53.1129C494.794 55.6148 495.747 58.9507 495.112 62.4703L474.154 180.849C472.883 188.27 464.945 194.291 456.688 194.291L254.728 194.249Z" fill="#FFEBEF"/>
<path d="M482.728 50.3424C486.38 50.3424 489.555 51.5583 491.619 53.7774C493.842 56.039 494.637 59.0919 494.16 62.3853L473.042 180.651C471.931 187.62 464.469 193.302 456.689 193.302H254.728C251.235 193.302 248.06 192.086 245.837 189.867C243.773 187.62 242.821 184.553 243.456 181.259L264.414 62.9934C265.684 56.039 272.987 50.3424 280.926 50.3424H482.728ZM482.728 48.4624H280.926C272.034 48.4624 263.779 54.8514 262.35 62.7104L241.232 180.991C239.962 188.835 245.996 195.239 254.728 195.239H456.689C465.421 195.239 473.837 188.835 475.266 180.991L496.224 62.7104C497.653 54.809 491.62 48.4624 482.728 48.4624Z" fill="#812652"/>
<path d="M472.883 77.7072C472.566 77.7072 472.407 77.6224 472.09 77.3821L461.293 65.6222C460.817 65.1982 460.975 64.6325 461.451 64.3074C461.928 63.9823 462.563 64.0249 462.881 64.4489L473.835 76.2095C474.153 76.6336 474.154 77.1985 473.677 77.5236C473.36 77.665 473.201 77.7072 472.883 77.7072Z" fill="#812652"/>
<path d="M459.706 77.7071C459.388 77.7071 459.071 77.6224 458.912 77.3821C458.594 77.0146 458.594 76.3931 459.07 76.068L474.63 64.3074C474.947 63.9823 475.742 64.0251 476.059 64.4068C476.377 64.7743 476.377 65.3957 475.901 65.7208L460.34 77.4814C460.181 77.6228 460.023 77.7071 459.706 77.7071Z" fill="#812652"/>
<path d="M235.993 108.847C233.294 108.847 232.183 107.377 232.183 107.334V107.292C229.166 97.2701 246.472 80.2942 246.631 80.1105L246.789 79.969L246.949 80.1526C246.949 80.2939 250.76 94.3161 253.618 102.486V102.543L253.458 102.585C249.965 104.931 245.837 107.518 241.55 108.366C239.168 108.79 239.009 108.847 237.263 108.847H235.993Z" fill="#812652"/>
<path d="M254.411 102.217C251.712 94.0759 247.742 80.1103 247.742 79.969C244.567 68.3926 236.628 37.3101 237.422 32.5608C237.898 29.9741 239.169 28.6172 241.392 28.6172C241.868 28.6172 242.344 28.702 242.344 28.702C242.344 28.7586 242.503 28.7586 242.661 28.7586C242.82 28.7586 243.138 28.6598 243.297 28.5185C243.615 28.3347 243.772 28.0095 243.613 27.6702C242.978 23.2602 243.931 21.2811 244.725 20.433C245.519 19.6839 246.314 19.5427 246.949 19.5427H247.107H247.266C247.743 19.5427 248.218 19.2037 248.377 18.7373C248.853 15.5428 250.759 14.8785 252.188 14.8785C252.505 14.8785 252.824 14.9351 252.824 14.9351H252.982C253.458 14.9351 253.934 14.6521 253.934 14.2705C254.569 12.7156 255.522 11.9246 256.951 11.9246C258.221 11.9246 259.65 12.7722 260.285 13.8888C261.872 17.0409 266.953 29.7906 266.953 29.9319C267.112 30.3136 267.59 30.54 267.907 30.54C268.066 30.54 268.065 30.54 268.223 30.54C268.541 30.4976 268.859 30.4551 269.177 30.4551C272.511 30.4551 275.21 34.4976 278.386 41.0279C279.814 43.7559 284.26 53.1133 291.563 68.7322L298.708 87.6299L260.762 118.388L254.411 102.217Z" fill="white"/>
<path d="M256.793 12.8998C257.746 12.8998 258.857 13.5217 259.175 14.3133C260.604 17.4229 265.842 30.1726 265.842 30.2998C266.159 31.0631 266.955 31.5718 267.907 31.5718C268.066 31.5718 268.224 31.5714 268.383 31.529C268.542 31.4866 268.859 31.4303 269.017 31.4303C272.034 31.4303 274.734 36.236 277.274 41.4517C278.544 44.1797 283.148 53.4947 290.452 69.156L297.439 87.4464L261.079 116.833L255.363 101.935C252.664 93.7929 248.854 79.8702 248.854 79.7288C244.409 63.7 237.74 36.8014 238.534 32.7023C239.01 29.6068 240.757 29.5503 241.392 29.5503C241.709 29.5503 241.867 29.6069 242.026 29.6069C242.185 29.6493 242.344 29.6918 242.662 29.6918C243.138 29.6918 243.614 29.55 243.931 29.2673C244.566 28.8433 244.725 28.1932 244.725 27.5854C244.09 23.3025 244.884 21.6489 245.519 21.0411C245.995 20.5747 246.471 20.4759 246.789 20.4759C246.948 20.5183 247.108 20.518 247.267 20.518C247.743 20.518 248.059 20.4332 248.377 20.1929C248.853 19.9102 249.172 19.4439 249.33 18.9209C249.648 16.8996 250.6 15.8676 252.188 15.8676C252.347 15.8676 252.347 15.8676 252.506 15.8676C252.665 15.91 252.823 15.9104 252.982 15.9104C253.934 15.9104 254.729 15.345 254.887 14.5535C255.364 13.4651 255.999 12.8998 256.793 12.8998ZM256.793 11.0198C255.205 11.0198 253.617 11.8677 252.982 14.0303C252.982 14.0303 252.664 13.9882 252.188 13.9882C250.759 13.9882 248.06 14.5113 247.267 18.6386C247.267 18.6386 247.108 18.6386 246.949 18.6386C245.52 18.6386 241.391 19.3023 242.662 27.8539C242.662 27.8539 242.027 27.7269 241.392 27.7269C239.804 27.7269 237.104 28.3769 236.311 32.476C235.358 38.4408 246.631 80.252 246.631 80.252C246.631 80.252 250.601 94.3158 253.3 102.585L260.127 120.225L299.82 88.0544L292.517 68.4493C286.643 55.94 280.925 43.8973 279.338 40.7029C276.003 33.9747 273.145 29.5503 269.017 29.5503C268.7 29.5503 268.384 29.6066 267.907 29.649C267.907 29.649 262.667 16.8148 261.238 13.5638C260.445 12.1079 258.698 11.0198 256.793 11.0198Z" fill="#812652"/>
<path d="M293.788 161.131C284.42 161.131 269.813 157.611 253.618 140.862C242.345 129.299 234.724 115.66 232.184 107.334C232.184 107.334 240.598 111.193 253.458 102.401C258.857 98.2171 262.192 94.401 266.002 89.9909C268.701 86.8813 271.718 83.4037 276.005 79.2622C286.166 69.3819 292.359 68.4491 292.518 68.3926L292.676 68.4492C299.821 83.7713 307.6 99.8566 308.235 101.228L378.096 69.481L383.335 74.796L346.977 143.647C346.818 143.83 330.94 159.774 295.216 161.131C294.739 161.131 294.264 161.131 293.788 161.131Z" fill="#F2AFD3"/>
<path d="M257.588 71.9262C256.953 71.9262 256.476 71.5447 256.476 71.0359C255.524 58.8941 263.938 51.6144 266.161 49.9607C266.002 49.4518 266.002 48.929 265.843 48.3636C264.414 41.3103 262.509 31.6705 267.431 29.7482C267.907 29.5503 268.543 29.7483 268.86 30.2147C269.019 30.6812 268.86 31.2464 268.225 31.4301C264.89 32.7588 266.956 43.0489 267.908 47.9819C268.067 48.7876 268.225 49.5368 268.384 50.1588C268.384 50.4839 268.226 50.8512 267.908 51.0491C267.908 51.0915 257.587 58.2437 258.54 70.8944C258.699 71.4032 258.223 71.8841 257.588 71.8841C257.588 71.9265 257.588 71.9262 257.588 71.9262Z" fill="#812652"/>
<path d="M260.127 41.6351C259.809 41.6351 259.334 41.409 259.175 40.9849C258.381 38.7233 251.394 18.9775 252.982 14.2282C253.141 13.7052 253.776 13.465 254.252 13.6063C254.887 13.7477 255.204 14.2701 255.046 14.7789C253.934 17.931 258.063 31.854 261.239 40.4197C261.397 40.9285 261.08 41.4516 260.445 41.593C260.445 41.6354 260.286 41.6351 260.127 41.6351Z" fill="#812652"/>
<path d="M254.411 45.3105C253.935 45.3105 253.617 45.0706 253.458 44.6466C247.742 28.6601 247.267 19.5428 247.267 19.1611C247.108 18.6382 247.584 18.2145 248.219 18.1721C248.854 18.1721 249.33 18.5536 249.33 19.0624C249.33 19.1614 249.965 28.3351 255.522 44.0813C255.68 44.6043 255.363 45.1126 254.728 45.2539C254.728 45.3105 254.57 45.3105 254.411 45.3105Z" fill="#812652"/>
<path d="M248.855 49.8618C248.379 49.8618 247.902 49.5791 247.743 49.1551C244.726 39.19 242.662 28.5184 242.662 28.4194C242.503 27.9106 242.821 27.4296 243.456 27.3448C244.091 27.2459 244.567 27.5714 244.726 28.0944C244.726 28.1933 246.79 38.7662 249.807 48.6464C249.966 49.1553 249.647 49.6777 249.171 49.819C249.012 49.8614 248.855 49.8618 248.855 49.8618Z" fill="#812652"/>
<path d="M245.679 52.166C245.361 52.166 245.044 52.0391 244.885 51.7988C244.409 51.3748 244.567 50.8091 245.043 50.484L261.079 39.473C261.555 39.1479 262.191 39.2466 262.508 39.6565C262.826 40.0806 262.826 40.6459 262.35 40.9851L246.313 51.9824C246.154 52.1237 245.838 52.166 245.679 52.166Z" fill="#812652"/>
<path d="M312.84 112.366C312.364 112.366 312.046 112.14 311.729 111.8L307.124 101.694C306.965 101.228 307.124 100.662 307.759 100.464C308.236 100.28 308.87 100.521 309.029 100.987L313.792 111.094C313.951 111.574 313.635 112.14 313.158 112.324C312.999 112.366 312.999 112.366 312.84 112.366Z" fill="#812652"/>
<path d="M249.331 131.886C247.743 131.886 246.155 131.745 244.726 131.462C244.25 131.363 243.773 130.84 243.932 130.331C244.091 129.808 244.726 129.483 245.202 129.624C252.506 130.981 263.621 129.342 275.529 113.638C284.738 101.836 295.852 92.5207 303.632 90.4995C304.108 90.3581 304.743 90.6407 304.902 91.1496C305.061 91.6726 304.743 92.1954 304.108 92.3367C296.963 94.2166 286.166 103.249 277.275 114.712C266.795 128.31 256.952 131.886 249.331 131.886Z" fill="#812652"/>
<path d="M313.158 195.083L382.859 69.0574L413.502 67.5024L458.436 195.083H313.158Z" fill="#F2AFD3"/>
<path d="M375.714 165.654C375.714 165.654 375.715 165.654 375.556 165.654C374.921 165.555 374.603 165.046 374.762 164.566L390.64 89.2276C390.798 88.7188 391.274 88.3791 391.909 88.4781C392.386 88.577 392.862 89.0859 392.703 89.5665L376.668 164.905C376.668 165.329 376.19 165.654 375.714 165.654Z" fill="#812652"/>
<path d="M338.403 150.7C338.244 150.7 338.086 150.643 337.927 150.601C337.292 150.361 337.133 149.81 337.451 149.329L377.302 77.4817C377.62 77.0012 378.256 76.817 378.732 77.0573C379.208 77.2834 379.526 77.849 379.208 78.3155L339.356 150.177C339.039 150.502 338.72 150.7 338.403 150.7Z" fill="#812652"/>
<path d="M291.089 98.5843C290.612 98.5843 290.295 98.4007 290.137 98.019L279.339 75.8699C279.18 75.4035 279.34 74.8383 279.816 74.6545C280.451 74.4708 281.085 74.6546 281.244 75.1211L292.041 97.2702C292.199 97.7366 292.041 98.3022 291.565 98.5001C291.406 98.5425 291.247 98.5843 291.089 98.5843Z" fill="#812652"/>
<path d="M275.211 116.465C274.894 116.465 274.577 116.267 274.259 115.942L262.192 93.8918C261.874 93.4112 262.032 92.8601 262.668 92.6198C263.144 92.3795 263.78 92.5771 263.939 93.0436L276.163 115.094C276.481 115.56 276.322 116.126 275.687 116.366C275.529 116.408 275.37 116.465 275.211 116.465Z" fill="#812652"/>
<path d="M257.587 129.809C257.269 129.809 256.951 129.667 256.633 129.342L256.475 129.116C252.506 123.179 247.266 115.801 243.137 106.684C242.979 106.203 243.297 105.638 243.773 105.455C244.249 105.271 244.884 105.496 245.201 105.977C249.171 114.953 254.253 122.247 258.381 128.127L258.539 128.353C258.856 128.777 258.698 129.385 258.063 129.667C257.904 129.766 257.746 129.809 257.587 129.809Z" fill="#812652"/>
<path d="M424.776 247.58C421.124 247.58 416.678 244.286 413.662 241.502C410.327 238.406 406.675 234.265 404.611 230.873L404.453 230.788L404.611 230.731C404.77 230.689 414.773 227.254 424.776 223.112L424.934 223.07V223.169C424.934 223.254 431.443 231.297 430.967 239.057C430.491 245.926 425.887 247.481 425.728 247.481C425.41 247.523 425.093 247.58 424.776 247.58Z" fill="#812652"/>
<path d="M369.999 237.375C362.378 237.375 361.267 234.688 361.267 234.688C361.108 234.264 360.789 234.038 360.313 234.038C360.154 234.038 356.503 233.982 354.598 232.201C353.804 231.395 353.487 230.363 353.646 229.091C353.646 228.724 353.327 228.342 353.01 228.201C353.01 228.201 350.788 227.169 350.47 225.43C350.153 224.342 350.629 223.127 351.74 221.798C351.899 221.614 352.058 221.331 352.058 221.105C351.899 220.865 351.898 220.624 351.58 220.44C351.58 220.44 349.834 219.211 349.834 217.43C349.993 215.932 351.105 214.377 353.646 212.78C357.139 210.56 369.364 205.104 369.523 205.062C369.841 204.921 369.999 204.539 369.999 204.172C369.999 203.79 369.84 203.465 369.363 203.323C369.363 203.323 367.14 202.476 366.664 200.836C366.346 199.847 366.664 198.673 367.776 197.401C369.998 194.715 377.303 191.196 387.464 186.305C389.846 185.075 392.545 183.803 395.403 182.446L423.664 171.011L443.035 211.649L424.3 222.363C414.297 226.505 404.294 229.939 404.294 229.939C404.135 229.982 390.322 234.83 377.144 236.752C374.445 237.176 372.063 237.375 369.999 237.375Z" fill="white"/>
<path d="M423.188 172.241L441.764 211.267L423.822 221.515C413.819 225.614 403.976 228.993 403.817 229.049C403.658 229.091 390.003 233.883 376.983 235.82C374.443 236.187 372.062 236.385 369.998 236.385C363.965 236.385 362.535 234.689 362.218 234.363C362.059 233.473 361.265 233.049 360.312 233.049C359.36 233.049 356.661 232.766 355.391 231.494C354.756 230.887 354.597 230.123 354.597 229.091C354.597 228.342 354.279 227.636 353.485 227.254C353.009 227.028 351.58 226.222 351.422 225.148C351.263 224.342 351.581 223.409 352.533 222.321C353.01 221.939 353.168 221.43 353.009 220.907C353.009 220.398 352.692 219.974 352.215 219.635C352.215 219.635 350.946 218.646 350.946 217.388C350.946 216.201 352.056 214.843 354.279 213.486C357.772 211.31 369.84 205.868 369.998 205.812C370.792 205.486 371.269 204.822 371.11 204.073C371.11 203.324 370.633 202.716 369.839 202.433C369.362 202.235 368.092 201.528 367.775 200.553C367.616 199.846 367.935 198.942 368.728 197.91C370.793 195.422 378.413 191.747 387.94 187.097C390.48 185.881 393.179 184.609 395.878 183.238L423.188 172.241ZM424.299 169.74L394.926 181.598C380.478 188.694 369.839 193.302 366.981 196.836C362.853 201.868 369.045 204.172 369.045 204.172C369.045 204.172 356.661 209.67 353.009 211.974C344.912 217.105 350.946 221.147 350.946 221.147C346.341 226.179 352.533 228.95 352.533 228.95C351.898 234.929 360.154 234.929 360.154 234.929C360.154 234.929 361.266 238.265 369.998 238.265C372.062 238.265 374.443 238.081 377.301 237.657C390.638 235.636 404.611 230.788 404.611 230.788C404.611 230.788 414.614 227.353 424.775 223.169L444.304 211.974L424.299 169.74Z" fill="#812652"/>
<path d="M492.889 154.558C490.984 144.07 485.745 132.777 477.171 121.073C470.344 111.716 461.294 102.02 450.498 92.2948C432.08 75.7288 414.455 64.6331 414.296 64.4918L414.138 64.449L403.024 77.3822L439.066 156.806C423.029 167.252 407.629 175.153 394.927 181.457L394.767 181.499V181.542C394.767 181.641 396.832 189.075 402.072 195.464C405.247 199.464 408.104 202.702 410.962 205.811C415.726 210.985 420.172 215.833 424.776 223.07C432.715 236.752 430.016 246.024 425.888 247.381C428.904 246.675 447.64 235.056 464.787 217.656C474.473 207.79 481.934 197.868 486.856 188.228C492.731 176.468 494.794 165.131 492.889 154.558Z" fill="#F2AFD3"/>
<path d="M439.223 157.838C438.747 157.838 438.43 157.612 438.271 157.23L416.837 110.345C416.678 109.879 416.995 109.313 417.471 109.129C417.947 108.931 418.583 109.172 418.901 109.638L440.177 156.523C440.336 157.004 440.176 157.555 439.541 157.753C439.541 157.838 439.382 157.838 439.223 157.838Z" fill="#812652"/>
<path d="M414.297 172.523C413.979 172.523 413.662 172.382 413.503 172.043C413.185 171.619 413.345 171.011 413.821 170.785C423.03 165.795 431.128 160.989 438.591 156.155L445.258 151.548C445.734 151.208 446.37 151.307 446.687 151.731C447.164 152.155 447.006 152.721 446.529 153.046L439.86 157.654C432.398 162.544 424.141 167.35 414.933 172.382C414.774 172.467 414.614 172.523 414.297 172.523Z" fill="#812652"/>
<path d="M455.737 226.929C455.102 226.886 454.626 226.462 454.626 225.939C454.784 222.603 453.99 218.787 452.244 214.659C449.862 209.246 444.146 202.701 437.954 195.789C430.174 186.771 421.918 177.457 419.695 168.948C419.536 168.425 419.854 167.901 420.489 167.817C420.965 167.675 421.6 168 421.759 168.523C423.982 176.608 431.92 185.782 439.7 194.673C445.892 201.669 451.768 208.356 454.149 213.996C456.055 218.42 457.007 222.462 456.689 226.038C456.689 226.547 456.372 226.929 455.737 226.929Z" fill="#812652"/>
<path d="M363.966 107.25C367.141 107.25 369.681 104.974 369.681 102.161C369.681 99.3622 367.141 97.0867 363.966 97.0867C360.79 97.0867 358.249 99.3622 358.249 102.161C358.249 104.974 360.79 107.25 363.966 107.25Z" fill="#812652"/>
<path d="M370.157 115.518C373.333 115.518 375.874 113.242 375.874 110.444C375.874 107.631 373.333 105.355 370.157 105.355C366.982 105.355 364.442 107.631 364.442 110.444C364.442 113.242 366.982 115.518 370.157 115.518Z" fill="#812652"/>
<path d="M378.731 121.766C381.907 121.766 384.447 119.504 384.447 116.691C384.447 113.892 381.907 111.617 378.731 111.617C375.556 111.617 373.015 113.892 373.015 116.691C373.015 119.504 375.556 121.766 378.731 121.766Z" fill="#812652"/>
<path d="M389.528 123.745C392.703 123.745 395.243 121.469 395.243 118.67C395.243 115.871 392.703 113.596 389.528 113.596C386.352 113.596 383.812 115.871 383.812 118.67C383.812 121.469 386.352 123.745 389.528 123.745Z" fill="#812652"/>
<path d="M400.484 122.288C403.659 122.288 406.199 120.013 406.199 117.214C406.199 114.401 403.659 112.14 400.484 112.14C397.308 112.14 394.767 114.401 394.767 117.214C394.767 120.013 397.308 122.288 400.484 122.288Z" fill="#812652"/>
<path d="M410.327 118.812C413.502 118.812 416.043 116.536 416.043 113.737C416.043 110.925 413.502 108.649 410.327 108.649C407.151 108.649 404.611 110.925 404.611 113.737C404.611 116.536 407.151 118.812 410.327 118.812Z" fill="#812652"/>
<path d="M420.013 114.204C423.188 114.204 425.728 111.928 425.728 109.129C425.728 106.316 423.188 104.041 420.013 104.041C416.837 104.041 414.296 106.316 414.296 109.129C414.296 111.928 416.837 114.204 420.013 114.204Z" fill="#812652"/>
<path d="M428.585 107.9C431.761 107.9 434.302 105.623 434.302 102.825C434.302 100.012 431.761 97.7368 428.585 97.7368C425.41 97.7368 422.87 100.012 422.87 102.825C422.87 105.623 425.41 107.9 428.585 107.9Z" fill="#812652"/>
<path d="M435.89 100.705C439.066 100.705 441.605 98.4293 441.605 95.6306C441.605 92.8177 439.066 90.5564 435.89 90.5564C432.715 90.5564 430.173 92.8177 430.173 95.6306C430.173 98.4293 432.715 100.705 435.89 100.705Z" fill="#812652"/>
<path d="M443.353 93.9341C446.528 93.9341 449.068 91.6586 449.068 88.8599C449.068 86.0471 446.528 83.7712 443.353 83.7712C440.336 83.7712 437.636 86.0471 437.636 88.8599C437.636 91.6586 440.336 93.9341 443.353 93.9341Z" fill="#812652"/>
<path d="M402.072 196.398C401.755 196.398 401.277 196.214 401.119 195.931C400.801 195.465 401.118 194.9 401.595 194.659L427.316 181.358C427.793 181.076 428.428 181.259 428.746 181.683C429.063 182.15 428.904 182.716 428.428 182.956L402.548 196.256C402.389 196.355 402.231 196.398 402.072 196.398Z" fill="#812652"/>
<path d="M417.472 214.236C416.996 214.236 416.679 214.094 416.52 213.811C416.203 213.387 416.362 212.766 416.838 212.497L441.766 198.574C442.242 198.292 442.876 198.433 443.194 198.857C443.511 199.281 443.352 199.889 442.876 200.171L417.95 214.094C417.791 214.179 417.631 214.236 417.472 214.236Z" fill="#812652"/>
<path d="M428.427 234.067C427.951 234.067 427.634 233.94 427.475 233.657C427.158 233.233 427.315 232.611 427.791 232.328C437.635 226.787 451.45 217.148 452.879 215.918C453.355 215.55 453.989 215.55 454.307 215.918C454.783 216.3 454.783 216.865 454.307 217.233C452.56 218.788 438.588 228.427 428.903 233.94C428.744 234.025 428.586 234.067 428.427 234.067Z" fill="#812652"/>
<path d="M369.999 205.571C369.681 205.571 369.204 205.387 369.045 205.062C368.886 204.581 369.046 204.03 369.681 203.79L387.146 196.454C387.622 196.214 388.258 196.454 388.575 196.921C388.893 197.387 388.574 197.952 388.098 198.193L370.475 205.529C370.316 205.529 370.157 205.571 369.999 205.571Z" fill="#812652"/>
<path d="M351.898 221.939C351.421 221.939 351.104 221.656 350.946 221.232C350.787 220.723 351.104 220.201 351.58 220.102C351.739 220.059 364.759 217.006 386.194 208.398C386.67 208.158 387.305 208.398 387.464 208.864C387.781 209.345 387.464 209.896 386.988 210.094C365.553 218.787 352.216 221.854 352.216 221.897C352.057 221.939 352.056 221.939 351.898 221.939Z" fill="#812652"/>
<path d="M353.962 229.459C353.486 229.459 353.01 229.134 353.01 228.71C352.851 228.201 353.169 227.72 353.804 227.579C371.11 224.427 391.115 216.257 391.274 216.158C391.75 215.918 392.386 216.158 392.704 216.625C393.021 217.091 392.704 217.656 392.228 217.897C391.91 217.995 371.745 226.264 354.28 229.416C354.121 229.459 354.121 229.459 353.962 229.459Z" fill="#812652"/>
<path d="M361.742 234.971C361.266 234.971 360.79 234.632 360.79 234.166C360.632 233.657 361.108 233.176 361.584 233.091C361.743 233.091 374.762 231.155 396.197 223.734C396.673 223.536 397.307 223.777 397.625 224.243C397.784 224.71 397.467 225.275 396.991 225.472C375.239 232.992 362.06 234.915 362.06 234.915C361.902 234.971 361.901 234.971 361.742 234.971Z" fill="#812652"/>
<path d="M431.921 41.7767C429.381 41.7767 426.998 41.5932 424.934 41.353C418.425 40.5049 412.709 38.5404 409.057 35.9537C408.422 35.4731 407.786 35.0488 407.151 34.5823C401.118 30.4408 393.657 25.2672 392.228 9.56346C392.228 9.05461 392.544 8.57405 393.18 8.53165C393.815 8.48924 394.291 8.85688 394.291 9.37987C395.72 24.2355 402.548 28.9425 408.423 33.084C409.217 33.5504 409.851 34.0169 410.487 34.4974C416.996 39.2891 432.238 41.9751 445.575 38.0173C446.21 37.876 446.846 38.1158 447.005 38.6247C447.163 39.1053 446.846 39.6711 446.211 39.8125C441.13 41.2684 436.208 41.7767 431.921 41.7767Z" fill="#812652"/>
<path d="M424.3 82.1741C431.286 82.1741 437.002 77.0997 437.002 70.838C437.002 64.5904 431.286 59.5164 424.3 59.5164C417.314 59.5164 411.598 64.5904 411.598 70.838C411.598 77.0997 417.314 82.1741 424.3 82.1741Z" fill="white"/>
<path d="M424.3 60.4487C430.81 60.4487 435.89 65.1133 435.89 70.8379C435.89 76.5766 430.81 81.2409 424.3 81.2409C417.79 81.2409 412.55 76.5766 412.55 70.8379C412.55 65.1133 417.79 60.4487 424.3 60.4487ZM424.3 58.5693C416.679 58.5693 410.486 64.0673 410.486 70.8379C410.486 77.6226 416.679 83.121 424.3 83.121C431.921 83.121 438.112 77.6226 438.112 70.8379C438.112 64.0673 431.921 58.5693 424.3 58.5693Z" fill="#812652"/>
<path d="M396.514 89.1282C396.197 89.1282 395.879 89.1282 395.721 89.1282C385.877 88.6618 376.667 79.4035 372.856 66.1309C368.093 49.2115 371.587 33.9181 381.113 30.5399C384.13 29.4515 387.304 28.9421 390.48 28.9421C403.499 28.9421 414.297 37.2116 414.456 37.3105C420.33 42.0598 423.028 46.8515 423.028 52.8305C423.187 59.4597 420.012 67.6011 413.026 78.3718C408.739 85.4251 402.865 89.1282 396.514 89.1282Z" fill="white"/>
<path d="M390.639 29.8899C403.024 29.8899 413.343 37.7347 413.82 38.0174C423.505 45.9188 426.68 55.3183 412.232 77.8916C407.945 84.6198 402.548 88.1959 396.514 88.1959C396.355 88.1959 396.037 88.1959 395.878 88.1959C386.352 87.7295 377.779 78.7963 373.968 65.9053C371.745 57.6789 371.269 49.5936 372.856 43.0916C374.285 37.0277 377.461 32.8863 381.589 31.4304C384.288 30.3985 387.464 29.8899 390.639 29.8899ZM390.639 27.9954C387.464 27.9954 384.13 28.4758 380.637 29.649C370.793 33.1262 366.823 48.6041 371.904 66.3291C375.874 80.478 385.558 89.5667 395.561 90.0332C395.878 90.0332 396.197 90.0332 396.514 90.0332C402.706 90.0332 409.057 86.5982 413.979 78.7957C428.269 56.5476 426.521 45.6781 415.089 36.5611C415.089 36.6035 404.135 27.9954 390.639 27.9954Z" fill="#812652"/>
<path d="M415.09 36.604C425.569 44.9718 427.952 54.8096 417.155 73.623C402.072 58.6118 407.151 37.9181 407.151 37.9181C407.151 37.9181 388.099 52.1806 370.475 44.0814C371.904 36.8444 375.398 31.5291 380.637 29.6491C398.261 23.444 415.09 36.604 415.09 36.604Z" fill="#812652"/>
<path d="M384.289 65.5239C384.13 65.5239 383.972 65.4813 383.813 65.3824C382.701 64.7746 381.907 63.9261 381.431 62.8943C381.114 62.1875 380.954 61.1986 380.954 59.8416C380.954 59.3186 381.589 58.8941 382.065 58.9506C382.7 58.9506 383.178 59.4173 383.019 59.9403C383.019 60.9722 383.176 61.7211 383.335 62.1875C383.653 62.8519 384.129 63.4179 384.923 63.8419C385.399 64.1246 385.558 64.6895 385.241 65.156C385.082 65.3821 384.765 65.5239 384.289 65.5239Z" fill="#812652"/>
<path d="M393.18 57.396C392.544 57.3394 392.228 56.9151 392.228 56.4063L392.386 55.1343C392.386 54.6113 392.862 54.2436 393.497 54.286C393.974 54.3284 394.449 54.7528 394.449 55.2758L394.291 56.5477C394.291 57.0142 393.815 57.396 393.18 57.396Z" fill="#812652"/>
<path d="M375.556 54.9931C374.921 54.9507 374.603 54.5264 374.603 54.0034L374.762 52.7314C374.762 52.2225 375.239 51.8411 375.874 51.8977C376.35 51.9401 376.826 52.364 376.826 52.8729L376.668 54.1449C376.668 54.6113 376.191 54.9931 375.556 54.9931Z" fill="#812652"/>
<path d="M389.686 75.6864C387.781 75.6864 385.558 74.6969 384.447 71.7427C384.447 71.5024 384.448 71.2197 384.606 71.0359C384.606 70.7957 384.923 70.6542 385.241 70.5694L393.497 68.2511C393.815 68.1663 394.132 68.2088 394.291 68.3926C394.609 68.5905 394.767 68.8166 394.767 69.0993C395.243 73.0147 392.861 75.2195 390.48 75.6436C390.162 75.6436 389.845 75.6864 389.686 75.6864ZM386.988 72.0678C387.623 73.3399 388.892 73.9901 390.004 73.8063C391.274 73.566 392.545 72.4496 392.703 70.4707L386.988 72.0678Z" fill="#812652"/>
<path d="M426.521 73.2835C426.363 73.2835 426.204 73.241 426.045 73.1986L418.583 70.3717C418.106 70.1879 417.79 69.623 417.949 69.1425C418.266 68.676 418.9 68.4493 419.377 68.6331L426.839 71.4601C427.316 71.6438 427.634 72.2097 427.475 72.6762C427.316 73.0578 426.839 73.2835 426.521 73.2835Z" fill="#812652"/>
<path d="M421.441 38.6247C433.19 38.6247 442.717 30.144 442.717 19.6842C442.717 9.21035 433.19 0.729248 421.441 0.729248C409.692 0.729248 400.166 9.21035 400.166 19.6842C400.166 30.144 409.692 38.6247 421.441 38.6247Z" fill="#812652"/>
<path d="M381.747 51.7985C382.223 44.7453 377.619 38.7377 371.269 38.3843C365.076 38.0309 359.519 43.4443 359.043 50.4976C358.566 57.5508 363.172 63.5584 369.523 63.9118C375.715 64.2793 381.271 58.8518 381.747 51.7985Z" stroke="#812652" stroke-width="1.33076" stroke-miterlimit="3.9998" stroke-linecap="round" stroke-linejoin="round"/>
<path d="M408.104 53.7913C408.58 46.738 403.975 40.7452 397.624 40.3777C391.273 40.0243 385.876 45.4377 385.4 52.491C384.765 59.5442 389.528 65.5519 395.72 65.9052C402.071 66.2727 407.628 60.8445 408.104 53.7913Z" stroke="#812652" stroke-width="1.33076" stroke-miterlimit="3.9998" stroke-linecap="round" stroke-linejoin="round"/>
<path d="M184.868 242.392C186.932 242.392 188.838 240.964 188.997 240.964L189.315 240.654L189.791 240.795C190.743 241.021 191.537 241.148 192.172 241.148C195.348 241.148 195.983 238.66 196.142 238.392L196.3 237.417L197.412 237.728C197.729 237.855 198.205 237.911 198.681 237.911C199.793 237.911 200.904 237.459 201.539 236.752C202.174 236.045 202.334 235.014 202.017 233.911L197.729 216.681L199.157 216.851C199.157 216.851 199.317 216.851 199.635 216.851C200.588 216.851 202.017 216.723 202.81 215.706C203.763 214.73 203.762 213.034 203.127 210.815L199.475 199.309L187.885 172.849L155.336 173.245L164.227 201.853C165.18 205.217 166.292 209.797 167.086 212.596C169.15 220.412 172.96 233.869 173.595 235.155C175.024 239.014 177.564 239.551 178.835 239.551C179.47 239.551 179.788 239.466 179.788 239.466L180.582 239.282L180.898 239.904C182.01 241.544 183.121 242.392 184.868 242.392Z" fill="white"/>
<path d="M187.249 173.697L156.766 174.093L165.181 201.585V201.628V201.67C166.133 205.048 167.244 209.613 168.038 212.37C170.102 220.144 173.913 233.558 174.389 234.844C175.342 237.332 176.929 238.66 178.835 238.66C179.152 238.66 179.47 238.618 179.47 238.618L180.898 238.18L181.692 239.509C182.804 241.332 184.074 241.544 184.709 241.544C186.138 241.544 187.726 240.653 188.203 240.342L188.997 239.721L190.108 239.989C190.902 240.215 191.537 240.3 192.172 240.3C194.395 240.3 194.871 238.703 195.03 238.265L195.348 236.215L197.57 236.88C197.887 236.979 198.206 237.021 198.523 237.021C199.317 237.021 200.111 236.71 200.587 236.173C201.063 235.636 201.222 234.929 201.063 234.038L197.094 218.052L196.3 215.564L199.157 215.932C199.157 215.932 199.317 215.932 199.635 215.932C200.111 215.932 201.381 215.833 202.016 215.126C202.652 214.419 202.652 212.949 202.016 211.041L198.523 199.578L187.249 173.697ZM188.521 171.916L200.429 199.013L203.92 210.546C205.985 217.076 201.381 217.698 199.635 217.698C199.317 217.698 198.999 217.656 198.999 217.656L202.968 233.643C203.762 236.936 201.222 238.745 198.523 238.745C198.047 238.745 197.57 238.661 197.094 238.533C197.094 238.533 196.3 242.039 192.172 242.039C191.378 242.039 190.584 241.897 189.473 241.643C189.473 241.643 187.408 243.283 184.868 243.283C183.121 243.283 181.375 242.576 180.104 240.3C180.104 240.3 179.628 240.442 178.835 240.442C177.247 240.442 174.39 239.777 172.643 235.423C172.008 233.996 168.038 220.328 166.133 212.766C165.339 210.024 164.228 205.486 163.275 202.023L154.066 172.368L188.521 171.916Z" fill="#812652"/>
<path d="M162.481 213.034C164.545 213.034 166.132 212.865 166.132 212.865V212.766C165.497 210.236 163.592 203.182 163.433 202.15C167.561 202.376 171.373 202.518 175.025 202.518C194.078 202.518 200.429 199.14 200.429 199.098L200.587 199.055L167.562 74.5271L131.996 95.9419V95.984C132.155 96.7331 140.57 172.764 148.985 206.56C150.414 212.2 158.035 213.034 162.481 213.034Z" fill="#7C55C5"/>
<path d="M162.481 213.034C164.545 213.034 166.133 212.864 166.133 212.864V212.78C165.498 210.066 163.433 202.122 163.433 202.023V201.981H163.275C162.64 201.939 162.164 201.938 161.529 201.938C155.972 201.938 152.955 203.182 151.209 204.242C149.462 205.401 148.985 206.518 148.985 206.56V206.603V206.645C150.414 212.2 158.035 213.034 162.481 213.034Z" fill="#812652"/>
<path d="M195.982 238.082C196.141 238.082 196.141 238.081 196.3 238.039C196.776 237.912 197.094 237.417 196.936 236.979C196.936 236.837 193.443 224.893 190.903 215.253C190.903 214.773 190.267 214.462 189.791 214.589C189.156 214.674 188.838 215.169 188.997 215.663C191.537 225.332 195.03 237.332 195.03 237.459C195.189 237.812 195.506 238.082 195.982 238.082Z" fill="#812652"/>
<path d="M188.997 241.629C189.156 241.629 189.156 241.629 189.315 241.587C189.791 241.46 190.108 240.965 189.949 240.527C189.949 240.4 185.98 226.674 183.44 216.596C183.44 216.102 182.804 215.791 182.328 215.918C181.693 216.017 181.375 216.497 181.534 216.992C184.074 227.112 188.043 240.88 188.043 241.007C188.202 241.375 188.52 241.629 188.997 241.629Z" fill="#812652"/>
<path d="M180.582 240.3C180.582 240.3 180.74 240.3 180.74 240.258C181.376 240.13 181.693 239.636 181.534 239.155C178.994 231.296 176.136 217.614 175.977 217.487C175.977 216.992 175.342 216.681 174.866 216.766C174.389 216.865 173.913 217.346 174.072 217.798C174.072 217.925 177.088 231.692 179.629 239.636C179.788 240.046 180.106 240.3 180.582 240.3Z" fill="#812652"/>
<path d="M173.12 218.546C173.12 218.546 173.119 218.546 173.278 218.546L192.648 215.437C193.283 215.352 193.6 214.9 193.6 214.419C193.442 213.924 192.966 213.613 192.331 213.712L172.96 216.808C172.325 216.907 172.007 217.345 172.166 217.84C172.166 218.235 172.643 218.546 173.12 218.546Z" fill="#812652"/>
<path d="M135.172 72.3509C135.172 72.3085 145.017 66.1455 152.797 66.1455C157.401 66.1455 160.417 68.2235 161.687 72.3509L166.133 74.5698V74.6264C166.291 76.577 184.709 269.39 185.503 278.945V278.987V279.03C185.503 279.03 181.058 280.754 172.008 280.754C161.37 280.754 142.952 278.45 116.119 267.482C72.2972 249.587 47.6882 242.788 40.8609 241.728C34.3512 240.526 28.3166 239.904 22.9183 239.904C9.74002 239.904 2.75428 243.678 1.00776 245.671L0.849609 245.586C5.93037 236.837 133.743 74.0471 135.172 72.3509Z" fill="#7C55C5"/>
<path d="M92.4624 140.876L135.49 72.3508L126.281 73.6932C102.941 82.2589 84.0471 92.2522 69.9162 103.348C58.3257 112.635 50.2276 122.36 46.2583 132.395L46.418 132.438L92.3027 140.791L92.4624 140.876Z" fill="#7C55C5"/>
<path d="M91.8276 142.615C92.1452 142.615 92.4621 142.43 92.7797 142.162L93.2572 141.271C93.5748 140.833 93.4157 140.296 92.9394 140.084C92.3043 139.858 91.8273 139.985 91.5098 140.438L91.0338 141.328C90.7162 141.766 90.8753 142.303 91.3516 142.515C91.5104 142.572 91.6689 142.615 91.8276 142.615Z" fill="#812652"/>
<path d="M92.3037 141.724C92.78 141.724 93.0985 141.541 93.2573 141.272L122.153 95.0511C122.47 94.5988 122.312 94.0763 121.677 93.8502C121.201 93.624 120.725 93.7654 120.407 94.2036L91.5098 140.438C91.1923 140.877 91.3514 141.414 91.8277 141.626C91.9865 141.682 92.1449 141.724 92.3037 141.724Z" fill="#812652"/>
<path d="M130.726 78.8805C136.76 78.8805 141.683 74.5272 141.683 69.156C141.683 63.7847 136.76 59.4314 130.726 59.4314C124.693 59.4314 119.93 63.7847 119.93 69.156C119.93 74.5272 124.693 78.8805 130.726 78.8805Z" fill="white"/>
<path d="M130.726 60.2796C125.328 60.2796 120.882 64.2374 120.882 69.1139C120.882 74.0045 125.328 77.9481 130.726 77.9481C136.283 77.9481 140.729 74.0045 140.729 69.1139C140.729 64.2374 136.283 60.2796 130.726 60.2796ZM130.726 58.4983C137.395 58.4983 142.634 63.2479 142.634 69.1139C142.634 74.9798 137.395 79.7288 130.726 79.7288C124.217 79.7288 118.818 74.9798 118.818 69.1139C118.818 63.2479 124.217 58.4983 130.726 58.4983Z" fill="#812652"/>
<path d="M155.494 82.9657C164.703 82.9657 172.483 74.004 174.547 61.2121C176.928 46.2857 172.325 33.409 163.91 31.3171C162.005 30.8365 159.94 30.6104 158.035 30.6104C145.651 30.6104 135.965 39.7977 135.965 39.8967C131.36 44.4622 129.455 48.7735 130.09 53.8762C130.725 59.6149 134.219 66.3147 141.364 75.0218C145.492 80.2093 150.413 82.9657 155.494 82.9657Z" fill="white"/>
<path d="M157.877 29.72V31.5006C146.286 31.5006 136.919 40.1654 136.602 40.4764C129.14 48.0243 127.393 56.364 142.159 74.4848C146.128 79.4178 150.732 82.0325 155.337 82.0325C159.465 82.0325 163.434 80.0824 166.609 76.5346C170.102 72.7041 172.643 67.205 173.596 61.0705C174.707 53.7911 174.23 46.8231 172.166 41.4095C170.261 36.3351 167.245 33.0982 163.593 32.1653C161.847 31.7271 159.942 31.5006 158.036 31.5006L157.877 29.72ZM157.877 29.72C159.941 29.72 162.005 29.9462 164.069 30.4833C172.961 32.6601 177.883 45.6642 175.502 61.3397C173.437 74.8808 164.863 83.856 155.337 83.856C150.415 83.856 145.176 81.3257 140.571 75.5587C125.964 57.5651 126.44 48.109 135.172 39.2748C135.172 39.3172 145.016 29.72 157.877 29.72Z" fill="#812652"/>
<path d="M164.545 61.7495C164.863 61.7495 165.022 61.6504 165.181 61.5232C165.975 60.9012 166.61 60.0957 167.086 59.1628V59.12C167.404 57.7489 166.928 55.4873 165.499 50.9925C165.34 50.5119 164.704 50.2862 164.227 50.4134C163.592 50.5548 163.434 51.0912 163.593 51.5294C164.387 53.9747 165.498 57.3533 165.181 58.6396C164.863 59.2615 164.546 59.7423 163.911 60.1946C163.593 60.5055 163.435 61.0708 163.911 61.4383C164.07 61.6503 164.228 61.7495 164.545 61.7495Z" fill="#812652"/>
<path d="M157.082 56.1941H157.242C157.877 56.1093 158.195 55.6146 158.036 55.134L157.876 54.0173C157.717 53.5226 157.241 53.2116 156.606 53.3106C156.13 53.3954 155.812 53.8901 155.812 54.3707L156.13 55.4874C156.289 55.8832 156.606 56.1941 157.082 56.1941Z" fill="#812652"/>
<path d="M170.102 51.2191C170.102 51.2191 170.103 51.2191 170.262 51.2191C170.738 51.1343 171.056 50.6817 171.056 50.2011L170.738 49.1272C170.738 48.6466 170.261 48.3356 169.626 48.4204C169.15 48.5052 168.674 48.9572 168.832 49.4377L168.991 50.5123C169.149 50.9081 169.467 51.2191 170.102 51.2191Z" fill="#812652"/>
<path d="M163.593 71.1775C161.687 71.1775 159.623 70.1876 158.512 67.2193C158.353 66.979 158.353 66.7105 158.512 66.5126C158.67 66.2864 158.83 66.145 159.147 66.046L167.402 63.7422C167.72 63.6433 168.038 63.7 168.356 63.8837C168.515 64.0675 168.673 64.3078 168.832 64.5905C169.15 68.4917 166.768 70.6969 164.387 71.1209C164.228 71.1209 163.91 71.1775 163.593 71.1775ZM160.893 67.5444C161.687 68.8165 162.799 69.4809 164.069 69.283C165.18 69.0568 166.45 67.9262 166.609 65.9473L160.893 67.5444Z" fill="#812652"/>
<path d="M129.139 71.4742C129.298 71.4742 129.456 71.4175 129.615 71.3327L135.648 68.3222C136.283 68.096 136.285 67.5164 136.126 67.1206C135.808 66.6683 135.173 66.5411 134.696 66.7672L128.663 69.7778C128.187 70.0039 128.028 70.5836 128.345 70.9794C128.504 71.2903 128.822 71.4742 129.139 71.4742Z" fill="#812652"/>
<path d="M126.121 41.5795C115.96 41.5795 107.704 34.2292 107.704 25.1547C107.704 16.0801 115.96 8.71606 126.121 8.71606C136.283 8.71606 144.54 16.0801 144.54 25.1547C144.54 34.2292 136.283 41.5795 126.121 41.5795Z" fill="#812652"/>
<path d="M27.8412 240.88C28 240.88 27.9994 240.88 27.9994 240.88C28.6345 240.795 28.953 240.357 28.953 239.862L24.9836 214.773C24.9836 214.278 24.3482 213.925 23.8719 214.024C23.3956 214.109 22.9192 214.547 23.078 215.041L26.8877 240.131C27.0464 240.569 27.3649 240.88 27.8412 240.88Z" fill="#812652"/>
<path d="M76.2681 253.177C76.4269 253.177 76.7435 253.135 76.9023 253.008L110.245 230.364C110.721 230.137 110.88 229.685 110.563 229.332C110.404 228.978 110.087 228.71 109.611 228.809L63.4065 233.558L67.6937 199.578C67.8525 199.183 67.5358 198.787 67.0595 198.645C66.742 198.518 66.1066 198.645 65.9478 199.055L45.7832 228.583L29.2701 208.681C28.9525 208.285 28.3184 208.2 27.842 208.511C27.3657 208.822 27.3648 209.36 27.6823 209.756L44.9893 230.717C45.1481 230.929 45.465 231.07 45.9413 231.07C46.2589 231.07 46.5764 230.887 46.7352 230.618L65.3121 203.452L61.3427 234.534C61.1839 234.802 61.343 235.071 61.6606 235.24C61.8194 235.424 62.1369 235.509 62.4544 235.509L106.117 230.986L75.6324 251.679C75.1561 251.99 75.1567 252.513 75.4742 252.923C75.633 253.051 75.9505 253.177 76.2681 253.177Z" fill="#812652"/>
<path d="M158.67 280.273C159.147 280.231 159.624 279.836 159.624 279.341L157.56 253.983C157.56 253.715 157.401 253.502 157.242 253.319C156.925 253.191 156.606 253.093 156.289 253.192L133.585 258.831L153.907 241.996C154.225 241.685 154.384 241.106 153.907 240.753L134.061 221.346L160.418 227.565C160.577 227.607 160.894 227.608 161.212 227.424C161.371 227.254 161.53 227.07 161.53 226.801L165.499 202.745L173.596 226.321C173.755 226.547 173.913 226.759 174.072 226.858C174.389 226.943 174.707 226.986 174.866 226.901L180.423 225.119C180.899 224.936 181.217 224.455 181.059 223.961C180.741 223.522 180.265 223.254 179.789 223.438L175.184 224.894L165.975 198.433C165.816 198.037 165.498 197.769 165.021 197.811C164.545 197.854 164.069 198.164 164.069 198.56L159.782 225.558L131.203 218.815C130.727 218.731 130.25 218.858 130.091 219.212C129.932 219.565 129.933 219.975 130.251 220.285L151.844 241.234L129.139 259.976C128.822 260.245 128.822 260.683 128.981 261.051C129.299 261.404 129.615 261.573 130.091 261.488L155.655 255.184L157.56 279.468C157.719 279.92 158.035 280.273 158.67 280.273Z" fill="#812652"/>
<path d="M164.544 281.164C165.021 281.164 165.498 280.895 165.498 280.499L172.643 257.318L183.439 264.103C183.915 264.371 184.549 264.287 184.867 263.891C185.184 263.481 185.027 262.958 184.551 262.647L172.643 255.085C172.325 254.915 172.007 254.873 171.689 254.958C171.371 255.043 171.214 255.269 171.055 255.58L163.592 280.004C163.433 280.499 163.75 280.98 164.226 281.107C164.385 281.164 164.544 281.164 164.544 281.164Z" fill="#812652"/>
<path d="M139.301 179.549C143.27 179.549 147.08 178.757 150.415 177.117C158.988 172.933 164.069 163.831 164.386 151.491C164.704 139.151 160.416 125.073 152.319 111.787C138.982 89.9908 118.342 75.333 100.877 75.333C96.7488 75.333 93.097 76.1245 89.7628 77.7783C71.8213 86.3864 71.0277 115.702 87.699 143.095C101.036 164.905 121.677 179.549 139.301 179.549Z" fill="#F2AFD3"/>
<path d="M104.846 120.268C115.96 120.268 124.851 112.281 124.851 102.458C124.851 92.648 115.96 84.6621 104.846 84.6621C93.8909 84.6621 84.8398 92.648 84.8398 102.458C84.8398 112.281 93.8909 120.268 104.846 120.268Z" fill="white"/>
<path d="M87.3814 110.995C97.0666 106.288 100.718 95.4472 95.4783 86.8391V86.7397L95.3201 86.7825C90.5569 89.0582 87.2217 92.8319 85.634 97.3974C84.205 101.977 84.6813 106.769 87.2217 110.995L87.3814 111.08V110.995Z" fill="#812652"/>
<path d="M112.944 96.1957C116.278 96.1957 119.612 95.4465 122.47 94.0188V93.9767V93.8918C118.977 88.1673 112.15 84.5627 104.847 84.5627C101.671 84.5627 98.1782 85.3261 95.3203 86.7396V86.7823V86.881C98.8133 92.648 105.481 96.1957 112.944 96.1957Z" fill="#812652"/>
<path d="M115.007 101.708C115.165 101.708 115.325 101.666 115.642 101.581C115.96 101.313 116.118 100.776 115.801 100.338L115.642 99.9697C115.325 99.5739 114.689 99.4472 114.213 99.7157C113.737 99.9701 113.579 100.507 113.897 100.959L114.213 101.313C114.372 101.581 114.689 101.708 115.007 101.708Z" fill="#812652"/>
<path d="M97.8598 110.02C98.0186 110.02 98.1771 109.963 98.3358 109.921C98.8122 109.751 99.1309 109.214 98.8134 108.776L98.6537 108.366C98.3361 107.928 97.8601 107.702 97.3838 107.928C96.7487 108.098 96.5893 108.635 96.7481 109.087L97.066 109.482C97.2247 109.836 97.5423 110.02 97.8598 110.02Z" fill="#812652"/>
<path d="M107.863 111.702C108.657 111.702 109.451 111.518 110.244 111.122C112.785 109.921 113.739 107.122 112.31 104.903C112.151 104.465 111.515 104.324 111.038 104.55C110.403 104.776 110.404 105.313 110.562 105.751C111.356 107.08 110.88 108.818 109.292 109.567C108.657 109.921 107.705 110.02 106.911 109.794C106.117 109.568 105.482 109.13 105.005 108.465C104.846 108.013 104.212 107.885 103.735 108.097C103.259 108.324 103.101 108.861 103.259 109.299C103.894 110.373 105.005 111.165 106.275 111.519C106.751 111.66 107.228 111.702 107.863 111.702Z" fill="#812652"/>
<path d="M140.41 147.718C140.41 147.718 140.411 147.718 140.57 147.718C142.475 147.718 144.222 147.011 145.651 145.767L145.968 145.541C146.126 145.272 146.444 144.961 146.761 144.65C148.984 141.725 148.033 137.724 144.857 135.689L115.324 117.963C114.848 117.737 114.372 117.794 114.055 118.105C113.737 118.416 113.579 118.897 113.896 119.25L134.537 145.004L134.695 145.06C134.854 145.315 135.172 145.626 135.489 145.852C136.759 147.054 138.505 147.718 140.41 147.718ZM118.66 122.232L143.586 137.187C145.968 138.657 146.603 141.597 145.016 143.675C144.857 143.901 144.697 144.127 144.38 144.297L144.222 144.523C143.269 145.456 141.84 145.936 140.57 145.936C139.141 145.936 137.712 145.498 136.759 144.608C136.6 144.438 136.442 144.212 136.125 143.944L118.66 122.232Z" fill="#812652"/>
<path d="M114.373 145.979H114.69C118.501 145.979 121.517 143.279 121.517 139.943C121.517 139.364 121.358 138.826 121.2 138.388L115.484 118.543C115.484 118.133 115.007 117.879 114.531 117.879C114.054 117.879 113.737 118.133 113.579 118.543L107.862 138.388C106.909 141.583 109.132 144.919 112.625 145.767H112.785L112.943 145.809C113.261 145.894 113.737 145.979 114.373 145.979ZM114.531 122.317L119.294 138.883V138.925C119.453 139.194 119.454 139.505 119.454 139.943C119.454 142.29 117.39 144.212 114.69 144.212H114.373C114.055 144.212 113.737 144.155 113.261 144.07H113.103C110.562 143.448 109.132 141.102 109.767 138.826L114.531 122.317Z" fill="#812652"/>
<path d="M134.854 122.981C135.33 122.981 135.807 122.67 135.807 122.274C135.966 121.78 135.649 121.341 135.014 121.242L114.691 117.921C114.215 117.822 113.738 118.133 113.579 118.627C113.579 119.122 113.897 119.561 114.373 119.645L134.696 122.981H134.854Z" fill="#812652"/>
<path d="M139.617 205.627C142.792 205.627 144.857 204.78 145.81 203.041L146.127 202.56H146.762C146.762 202.56 149.62 202.518 151.049 201.048C151.684 200.341 151.843 199.451 151.685 198.249L151.525 197.542L152.319 197.274C152.319 197.274 154.384 196.426 154.86 194.829C155.178 193.853 154.86 192.751 153.748 191.507L153.272 190.828L153.906 190.305C153.906 190.305 155.812 188.92 155.494 187.238C155.335 185.867 153.908 184.524 151.209 183.323L136.759 176.934L139.459 176.354C142.317 175.69 141.841 173.429 141.682 172.976C141.206 171.52 135.966 168.453 129.932 164.863C127.074 163.124 123.74 161.174 120.088 158.997L90.7148 145.583L74.5195 179.068L90.2388 186.658C95.1608 189.273 104.846 193.811 105.004 193.853C121.517 201.797 132.948 205.627 139.617 205.627Z" fill="white"/>
<path d="M91.3508 146.827L75.9494 178.673L90.7151 185.91H90.8748C95.7968 188.525 105.481 193.005 105.481 193.104C121.676 200.822 133.107 204.737 139.617 204.737C143.745 204.737 144.699 203.182 145.016 202.645L145.492 201.67H146.762C147.238 201.67 149.461 201.486 150.255 200.468C150.414 200.299 151.049 199.762 150.731 198.376L150.573 197.006L152.003 196.468C152.479 196.298 153.749 195.592 154.067 194.602C154.225 193.896 153.907 193.048 153.113 192.03L152.003 190.702L153.431 189.641C153.431 189.641 154.859 188.524 154.701 187.365C154.542 186.348 153.273 185.188 150.891 184.128L138.983 178.8L133.744 176.581L139.301 175.464C139.301 175.464 139.935 175.294 140.411 174.899C140.729 174.588 141.047 174.135 140.889 173.16C140.412 171.959 134.696 168.538 129.457 165.57C126.599 163.831 123.422 161.923 119.77 159.704L91.3508 146.827ZM90.3972 144.382L120.724 158.29C132.791 165.697 141.999 170.277 142.634 172.807C143.746 176.355 139.777 177.245 139.777 177.245L151.685 182.574C160.735 186.574 154.701 191.012 154.701 191.012C158.67 195.903 152.637 198.122 152.637 198.122C153.748 203.451 146.762 203.451 146.762 203.451C145.492 205.571 142.951 206.504 139.617 206.504C131.52 206.504 118.025 201.09 104.529 194.659C104.529 194.659 94.8438 190.08 89.7631 187.408L73.4097 179.422L90.3972 144.382Z" fill="#812652"/>
<path d="M43.4011 144.382C43.5598 140.254 44.5128 136.212 46.1005 132.396V132.353L76.2676 131.024L92.3031 140.792C101.512 147.053 112.786 153.895 120.724 158.192L120.882 158.234V158.332C120.724 158.375 117.072 163.831 108.816 169.782C107.705 170.63 106.593 171.379 105.641 172.1C99.4486 176.397 95.0023 179.506 89.9215 187.422L86.27 202.165C74.362 195.281 63.406 185.768 55.4673 175.422C47.211 164.637 42.9247 153.626 43.4011 144.382Z" fill="#7C55C5"/>
<path d="M86.2704 202.108C86.588 202.108 86.9049 201.939 87.2224 201.67C87.3812 201.218 87.2228 200.695 86.7464 200.469C78.3314 196.341 65.4714 186.574 55.6274 174.093C55.4686 173.698 54.8338 173.599 54.3575 173.867C53.8812 174.136 53.7221 174.715 54.0396 175.111C64.0424 187.818 77.2206 197.811 85.7944 202.023C85.9532 202.066 86.1117 202.108 86.2704 202.108Z" fill="#812652"/>
<path d="M89.2873 202.518C93.5742 202.518 97.5433 200.384 100.084 198.603C102.783 196.694 104.687 194.744 104.687 194.701V194.617L89.9215 187.365V187.465C84.0469 197.147 86.27 202.066 86.27 202.108V202.165C87.2227 202.419 88.1759 202.518 89.2873 202.518Z" fill="#812652"/>
<path d="M136.441 177.782C136.759 177.782 137.077 177.598 137.395 177.287C137.553 176.849 137.395 176.312 136.919 176.086L128.186 172.001C127.71 171.789 127.073 171.959 126.915 172.355C126.597 172.807 126.915 173.344 127.233 173.556L135.965 177.641C136.124 177.74 136.282 177.782 136.441 177.782Z" fill="#812652"/>
<path d="M153.114 191.902C153.59 191.902 154.067 191.634 154.067 191.28C154.226 190.786 153.908 190.305 153.432 190.164C145.493 188.029 136.125 184.213 129.616 181.329C129.139 181.103 128.504 181.287 128.346 181.726C128.028 182.178 128.345 182.701 128.822 182.927C135.331 185.811 144.859 189.725 152.797 191.846C152.956 191.902 153.114 191.902 153.114 191.902Z" fill="#812652"/>
<path d="M151.685 198.56C152.162 198.56 152.479 198.291 152.637 197.938C152.796 197.457 152.48 196.963 152.003 196.836C151.844 196.779 137.554 192.878 125.964 188.129C125.487 187.902 125.011 188.129 124.694 188.567C124.376 189.019 124.693 189.542 125.17 189.768C136.76 194.56 151.209 198.517 151.368 198.56C151.526 198.56 151.527 198.56 151.685 198.56Z" fill="#812652"/>
<path d="M145.653 203.451C146.129 203.451 146.605 203.14 146.605 202.73C146.763 202.249 146.446 201.811 145.811 201.712C145.811 201.712 136.602 200.115 123.106 194.207C122.471 193.995 121.994 194.165 121.677 194.617C121.518 195.055 121.676 195.592 122.153 195.804C135.966 201.854 145.017 203.409 145.493 203.493C145.652 203.451 145.653 203.451 145.653 203.451Z" fill="#812652"/>
<path d="M120.248 159.93C120.566 159.93 120.884 159.789 121.042 159.534C121.36 159.124 121.2 158.545 120.883 158.29L78.8076 132.523C78.3312 132.268 77.6971 132.353 77.3795 132.749C77.2207 133.145 77.2195 133.724 77.6958 133.993L119.613 159.746C119.93 159.887 120.09 159.93 120.248 159.93Z" fill="#812652"/>
<path d="M63.4064 184.793C63.4064 184.793 63.5655 184.75 63.7242 184.708L80.2373 177.598C80.5549 177.514 80.7134 177.287 80.7134 177.061C80.8721 176.849 80.8721 176.58 80.7134 176.354L63.5661 147.534L99.9244 161.612C100.242 161.753 100.56 161.697 100.878 161.527C101.196 161.343 101.354 161.075 101.354 160.764V146.559C101.354 146.078 100.877 145.667 100.242 145.667C99.7659 145.667 99.2902 146.078 99.2902 146.559V159.392L61.8186 144.834C61.3423 144.692 60.8672 144.777 60.7085 145.046C60.3909 145.314 60.2312 145.71 60.5488 146.077L78.4899 176.354L62.9304 183.068C62.4541 183.28 62.2956 183.818 62.4544 184.256C62.6131 184.623 62.9301 184.793 63.4064 184.793Z" fill="#812652"/>
<path d="M178.2 202.913C178.2 202.913 178.2 202.913 178.358 202.913C178.835 202.871 179.311 202.419 179.152 201.938L170.896 114.189C170.896 113.695 170.26 113.341 169.784 113.384C169.308 113.426 168.832 113.878 168.832 114.359L177.247 202.108C177.247 202.56 177.724 202.913 178.2 202.913Z" fill="#812652"/>
<path d="M164.068 30.4836C148.35 26.5683 135.171 39.3179 135.171 39.3179C126.915 47.6716 125.962 56.5905 138.347 72.8031C138.347 72.8031 150.89 61.2124 141.522 41.4519C159.781 47.4875 173.437 39.4028 173.437 39.4028C171.373 34.6959 168.196 31.4589 164.068 30.4836Z" fill="#812652"/>
<path d="M198.047 218.547C198.047 218.547 198.205 218.547 198.205 218.505C198.84 218.363 199.158 217.882 198.999 217.43L196.459 208.554C196.301 208.059 195.824 207.804 195.348 207.889C194.712 208.016 194.554 208.511 194.554 208.949L197.093 217.84C197.093 218.278 197.571 218.547 198.047 218.547Z" fill="#812652"/>
</svg>
